<?xml version="1.0" encoding="UTF-8"?>
<svg version="1.1" xmlns="http://www.w3.org/2000/svg" width="300" height="148">
<path d="M0 0 C1.04897461 0.00483398 1.04897461 0.00483398 2.11914062 0.00976562 C7.77552888 0.16264098 11.40355436 1.33153624 16.0625 4.4375 C16.0625 3.7775 16.0625 3.1175 16.0625 2.4375 C19.64247807 0.21157771 22.60488533 0.17881434 26.77124023 0.1628418 C27.43678925 0.15773087 28.10233826 0.15261993 28.78805542 0.14735413 C30.98249366 0.13348337 33.17661695 0.13441293 35.37109375 0.13671875 C36.90039689 0.13283044 38.42969896 0.12849549 39.95899963 0.12373352 C43.16256208 0.11627675 46.36601431 0.11655863 49.56958008 0.12182617 C53.66977662 0.12762028 57.76952136 0.11068895 61.86964321 0.0874815 C65.02755866 0.07273167 68.18536561 0.07187414 71.3433094 0.07499123 C72.85474607 0.07447865 74.3661889 0.06925273 75.87759209 0.05917931 C77.99347964 0.04680741 80.10849113 0.05361004 82.22436523 0.06518555 C83.42697495 0.06455612 84.62958466 0.0639267 85.86863708 0.0632782 C89.66380544 0.50795437 92.3410455 1.7160455 95.0625 4.4375 C95.42559609 7.82257482 95.43418589 11.22309139 95.5 14.625 C95.56864258 16.04522461 95.56864258 16.04522461 95.63867188 17.49414062 C95.75375049 24.6640386 95.75375049 24.6640386 93.7199707 26.93969727 C93.17816162 27.35662842 92.63635254 27.77355957 92.078125 28.203125 C89.56166532 30.28857442 89.09871318 31.22975417 88.52368164 34.52856445 C88.35583368 38.36147609 88.3278248 42.16371256 88.375 46 C88.38394468 48.60545632 88.38053565 51.2109917 88.36328125 53.81640625 C88.37528564 54.9669751 88.38729004 56.11754395 88.3996582 57.30297852 C87.73318527 63.4991016 83.6773966 67.09194186 79.375 71.25 C78.60833008 72.00313477 78.60833008 72.00313477 77.82617188 72.77148438 C76.57615638 73.99813509 75.3199532 75.21847491 74.0625 76.4375 C75.07570313 76.45876953 75.07570313 76.45876953 76.109375 76.48046875 C77.00140625 76.52816406 77.8934375 76.57585937 78.8125 76.625 C79.69421875 76.65980469 80.5759375 76.69460937 81.484375 76.73046875 C84.0625 77.4375 84.0625 77.4375 86.42578125 79.45703125 C88.68492836 83.57094353 88.19938577 86.41298198 87.5 90.9375 C87.41169922 91.68386719 87.32339844 92.43023437 87.23242188 93.19921875 C86.64433291 97.54262094 85.83423333 100.90555826 83.0625 104.4375 C79.875 105.75 79.875 105.75 77.0625 106.4375 C77.701875 107.365625 78.34125 108.29375 79 109.25 C82.64870708 114.88891094 82.8990359 120.24773121 81.6015625 126.74609375 C78.73451746 136.47718193 72.85284239 142.59862581 64.0625 147.4375 C61.23793078 148.37902307 59.51795837 148.56435052 56.59436798 148.56892776 C55.21398385 148.57468948 55.21398385 148.57468948 53.80571318 148.5805676 C52.79317866 148.57970112 51.78064414 148.57883463 50.73742676 148.57794189 C49.66300591 148.58091302 48.58858506 148.58388414 47.48160601 148.5869453 C43.8633806 148.59565169 40.2451882 148.59714217 36.62695312 148.59863281 C34.04027739 148.60325951 31.45360235 148.60828396 28.8669281 148.61367798 C21.82787434 148.62726206 14.78882627 148.63328574 7.74976158 148.63768864 C3.3567785 148.64045014 -1.03620237 148.64468725 -5.42918396 148.64919281 C-17.58654899 148.66138407 -29.74391225 148.67168465 -41.90128326 148.6750679 C-42.67940497 148.67528747 -43.45752669 148.67550703 -44.25922784 148.67573325 C-45.03922848 148.67595153 -45.81922913 148.67616981 -46.62286615 148.6763947 C-48.2034928 148.67683817 -49.78411945 148.67728473 -51.36474609 148.67773438 C-52.54081847 148.67806652 -52.54081847 148.67806652 -53.74064988 148.67840537 C-66.45488318 148.68235633 -79.16905926 148.69982005 -91.88327044 148.7230939 C-104.92937536 148.74678311 -117.97545153 148.75926859 -131.02157831 148.76043582 C-138.34957654 148.76135379 -145.67750018 148.76713697 -153.00547791 148.78525543 C-159.89352088 148.80222602 -166.78141975 148.80392734 -173.66947746 148.79511642 C-176.20316382 148.79434219 -178.73685759 148.79873914 -181.27052498 148.80857468 C-184.71799778 148.8211771 -188.16495848 148.81548132 -191.61242676 148.80499268 C-192.62496128 148.81304908 -193.63749579 148.82110548 -194.68071318 148.82940602 C-195.60096926 148.82281618 -196.52122535 148.81622633 -197.46936798 148.8094368 C-198.26553418 148.81003389 -199.06170037 148.81063097 -199.88199282 148.81124616 C-202.50658524 148.33402509 -203.38306209 147.58509067 -204.9375 145.4375 C-205.64604875 138.11582959 -204.71284226 130.27639799 -201.9375 123.4375 C-199.02378574 121.17596977 -197.64358421 120.4375 -193.9375 120.4375 C-194.576875 119.509375 -195.21625 118.58125 -195.875 117.625 C-199.80042809 111.55842931 -199.65796608 105.48205719 -198.9375 98.4375 C-197.03542603 92.7160615 -194.31358355 88.56111719 -189.9375 84.4375 C-190.76894531 84.40011719 -191.60039062 84.36273438 -192.45703125 84.32421875 C-193.54371094 84.25847656 -194.63039062 84.19273438 -195.75 84.125 C-196.82894531 84.06699219 -197.90789062 84.00898437 -199.01953125 83.94921875 C-202.25583724 83.38167379 -202.97579378 82.96777034 -204.9375 80.4375 C-205.58455799 77.32296914 -205.44698298 74.17442637 -205.4375 71 C-205.46585938 70.14083984 -205.49421875 69.28167969 -205.5234375 68.39648438 C-205.54310389 62.05899164 -205.54310389 62.05899164 -202.40625 58.83984375 C-201.5915625 58.37707031 -200.776875 57.91429687 -199.9375 57.4375 C-200.8965625 56.0453125 -200.8965625 56.0453125 -201.875 54.625 C-205.4830684 49.04889429 -205.68378673 43.92510627 -204.9375 37.4375 C-202.79287002 30.88343682 -199.65915495 26.25193663 -193.9375 22.4375 C-190.21505828 20.66436582 -187.27406896 20.18384758 -183.164505 20.17007446 C-182.01093002 20.16154449 -180.85735504 20.15301453 -179.66882324 20.14422607 C-178.41210815 20.14513245 -177.15539307 20.14603882 -175.8605957 20.14697266 C-174.51649096 20.1409846 -173.17238966 20.13417841 -171.82829285 20.12661743 C-168.18338718 20.10897375 -164.53857547 20.10426262 -160.89363122 20.10298586 C-158.61287163 20.10156224 -156.33213576 20.09728856 -154.05138206 20.09199142 C-146.08412542 20.07349327 -138.11693561 20.06532013 -130.1496582 20.06689453 C-122.74072127 20.06809438 -115.33207639 20.04702249 -107.9232133 20.0154072 C-101.54932206 19.9891846 -95.17552581 19.9785298 -88.80158108 19.97980535 C-85.00062012 19.98031343 -81.19991852 19.97471671 -77.39901161 19.95344925 C-73.819349 19.93396669 -70.24019036 19.93400981 -66.66050911 19.94848251 C-64.73492085 19.95154326 -62.80933201 19.93496253 -60.88381958 19.91760254 C-54.25433026 19.9652311 -49.06551435 20.65419352 -43.03314495 23.48192406 C-40.96543479 24.42476225 -39.19116724 25.12848164 -36.9375 25.4375 C-34.42332576 23.55391376 -34.42332576 23.55391376 -31.98046875 20.828125 C-31.28139153 20.10420563 -31.28139153 20.10420563 -30.56819153 19.36566162 C-29.0746923 17.81763804 -27.59850224 16.25455412 -26.125 14.6875 C-24.66156248 13.13544978 -23.1946116 11.58781622 -21.71394348 10.05218506 C-20.36157556 8.64929485 -19.02446487 7.23174409 -17.68823242 5.81347656 C-12.40081618 1.24641036 -6.96161727 -0.10011914 0 0 Z " fill="#4B4944" transform="translate(204.9375,-0.4375)"/>
<path d="M0 0 C0.515625 0.433125 1.03125 0.86625 1.5625 1.3125 C4.51025517 0.01565938 4.51025517 0.01565938 6.71875 -2.25 C9.61098069 -4.50495952 12.74843044 -4.00250814 16.25 -3.875 C16.95189453 -3.86146484 17.65378906 -3.84792969 18.37695312 -3.83398438 C20.10579829 -3.79870182 21.83424765 -3.74489583 23.5625 -3.6875 C24.5525 -1.7075 24.5525 -1.7075 25.5625 0.3125 C26.0069043 -0.33944336 26.45130859 -0.99138672 26.90917969 -1.66308594 C31.01563316 -4.79620263 34.99130913 -4.18337369 40.015625 -4.078125 C41.53866241 -4.06963531 41.53866241 -4.06963531 43.09246826 -4.06097412 C46.33296001 -4.03859753 49.5723429 -3.98839755 52.8125 -3.9375 C55.01040069 -3.91743671 57.20831872 -3.89918565 59.40625 -3.8828125 C64.7920445 -3.83872871 70.17719303 -3.77180373 75.5625 -3.6875 C76.50565068 10.04058219 76.50565068 10.04058219 74.21777344 13.12597656 C73.39067871 13.72104004 73.39067871 13.72104004 72.546875 14.328125 C70.79977308 15.52826344 70.79977308 15.52826344 69.5625 17.3125 C69.1465989 21.56121513 69.46886432 25.73432378 69.71450806 29.98995972 C70.19950866 40.24777524 69.82575908 48.80608792 62.77416992 56.92163086 C56.62018839 62.89400512 51.29860583 67.31858545 42.5 67.5 C37.01488095 66.76488095 37.01488095 66.76488095 35.5625 65.3125 C35.48936433 62.78200598 35.47002473 60.27945163 35.5 57.75 C35.50451172 57.03908203 35.50902344 56.32816406 35.51367188 55.59570312 C35.52549136 53.83459987 35.54342737 52.07353964 35.5625 50.3125 C30.89387473 54.3020525 26.41776979 58.36164345 22.203125 62.83203125 C17.88608889 66.72764241 13.91290283 66.62277876 8.31640625 66.49609375 C3.15485247 66.15199016 -0.2616897 65.25826046 -4.3125 62 C-6.52062462 59.2073718 -6.89873413 57.73423642 -7.4375 54.3125 C-7.9221875 54.75980469 -8.406875 55.20710938 -8.90625 55.66796875 C-11.04611053 57.59795834 -13.22502749 59.46622984 -15.4375 61.3125 C-16.06140625 61.83328125 -16.6853125 62.3540625 -17.328125 62.890625 C-22.97881525 67.0218019 -28.60827426 67.3513118 -35.4375 66.3125 C-39.95861632 64.13267606 -42.51710975 61.34062449 -45.4375 57.3125 C-46.015 56.549375 -46.5925 55.78625 -47.1875 55 C-47.6 54.443125 -48.0125 53.88625 -48.4375 53.3125 C-49.241875 54.6428125 -49.241875 54.6428125 -50.0625 56 C-53.8827021 61.6899489 -57.92000715 64.14000238 -64.4375 66.3125 C-70.0475 66.3125 -75.6575 66.3125 -81.4375 66.3125 C-81.4375 49.8125 -81.4375 33.3125 -81.4375 16.3125 C-59.91709184 16.3125 -59.91709184 16.3125 -53.72265625 21.84375 C-50.4375 25.55661357 -50.4375 25.55661357 -50.4375 28.3125 C-49.7775 28.3125 -49.1175 28.3125 -48.4375 28.3125 C-48.33429443 27.56436035 -48.23108887 26.8162207 -48.12475586 26.04541016 C-47.37118283 23.04878618 -46.51956932 21.82692262 -44.44140625 19.5859375 C-43.80992676 18.89983398 -43.17844727 18.21373047 -42.52783203 17.50683594 C-41.83802246 16.78270508 -41.14821289 16.05857422 -40.4375 15.3125 C-39.72319824 14.55485352 -39.00889648 13.79720703 -38.27294922 13.01660156 C-35.99729907 10.63258712 -33.69090808 8.28238107 -31.375 5.9375 C-30.59833984 5.13183594 -29.82167969 4.32617188 -29.02148438 3.49609375 C-20.11406778 -5.5093723 -11.025508 -7.633044 0 0 Z " fill="#F9FBFA" transform="translate(217.4375,10.6875)"/>
<path d="M0 0 C5.61 0 11.22 0 17 0 C19.97 14.52 22.94 29.04 26 44 C26.33 29.48 26.66 14.96 27 0 C31.29 0 35.58 0 40 0 C47.48291572 19.96810934 47.48291572 19.96810934 50 29 C49.83628906 27.73285156 49.67257813 26.46570313 49.50390625 25.16015625 C48.92021092 19.90689827 48.88714051 14.71749915 48.9375 9.4375 C48.94201172 8.52419922 48.94652344 7.61089844 48.95117188 6.66992188 C48.96281238 4.44658548 48.98074153 2.22328346 49 0 C53.29 0 57.58 0 62 0 C62 16.5 62 33 62 50 C57.71 50 53.42 50 49 50 C48.05814808 47.54326003 47.12149032 45.08472864 46.1875 42.625 C45.92646484 41.94566406 45.66542969 41.26632813 45.39648438 40.56640625 C43.31966618 35.07950387 41.69737537 29.65791791 40 24 C40 32.58 40 41.16 40 50 C31.09 50 22.18 50 13 50 C12.67 47.69 12.34 45.38 12 43 C7.545 43.495 7.545 43.495 3 44 C2.67 45.98 2.34 47.96 2 50 C-2.62 50 -7.24 50 -12 50 C-10.87378263 43.24269575 -10.87378263 43.24269575 -10.16796875 40.07421875 C-10.01126709 39.36837646 -9.85456543 38.66253418 -9.69311523 37.93530273 C-9.52626221 37.19352783 -9.35940918 36.45175293 -9.1875 35.6875 C-9.01226807 34.90640869 -8.83703613 34.12531738 -8.65649414 33.32055664 C-8.10693203 30.879775 -7.55370953 28.43984375 -7 26 C-6.82533203 25.22462891 -6.65066406 24.44925781 -6.47070312 23.65039062 C-4.66064513 15.63832261 -2.81211901 7.73332727 0 0 Z " fill="#F5F5F5" transform="translate(71,27)"/>
<path d="M0 0 C3.81223512 -0.11745244 7.62399682 -0.18766603 11.4375 -0.25 C12.50677734 -0.28351563 13.57605469 -0.31703125 14.67773438 -0.3515625 C21.52292171 -0.43529568 27.2133981 0.0831256 33 4 C36.70311094 8.34280381 36.50014068 12.4976423 36.3515625 17.98828125 C35.67534114 23.78124426 33.55940116 27.51485604 29.375 31.5 C27 33 27 33 25 33 C25.21205078 33.62044189 25.42410156 34.24088379 25.64257812 34.88012695 C26.59975659 37.68934057 27.54995075 40.50086777 28.5 43.3125 C28.83386719 44.28896484 29.16773438 45.26542969 29.51171875 46.27148438 C29.98544922 47.67817383 29.98544922 47.67817383 30.46875 49.11328125 C30.76201172 49.97735596 31.05527344 50.84143066 31.35742188 51.73168945 C32 54 32 54 32 57 C26.39 57 20.78 57 15 57 C13.68 49.74 12.36 42.48 11 35 C10.05591466 40.74335348 10.05591466 40.74335348 9.11547852 46.48730469 C8.99615967 47.20821289 8.87684082 47.92912109 8.75390625 48.671875 C8.63345947 49.4050293 8.5130127 50.13818359 8.38891602 50.89355469 C8.00990932 52.94632916 7.50628573 54.97485707 7 57 C2.05 57 -2.9 57 -8 57 C-6.93608326 44.24887845 -5.03365861 31.73411482 -2.76489258 19.1418457 C-1.62064364 12.76624858 -0.61715627 6.44893634 0 0 Z " fill="#F07756" transform="translate(215,84)"/>
<path d="M0 0 C4.95 0 9.9 0 15 0 C15.29975265 7.49381615 14.13946529 14.59347563 13 22 C16.63 14.74 20.26 7.48 24 0 C29.28 0 34.56 0 40 0 C38.54310732 3.64223171 37.24420212 6.43029737 35.21484375 9.6875 C34.41916992 10.98300781 34.41916992 10.98300781 33.60742188 12.3046875 C32.49305572 14.10331357 31.37585998 15.90018958 30.25585938 17.6953125 C29.72669922 18.55898437 29.19753906 19.42265625 28.65234375 20.3125 C28.16757568 21.09238281 27.68280762 21.87226562 27.18334961 22.67578125 C25.56026745 25.86367937 24.71051278 28.51718409 25.40551758 32.07714844 C25.64939209 32.7477832 25.8932666 33.41841797 26.14453125 34.109375 C26.40943359 34.86476562 26.67433594 35.62015625 26.94726562 36.3984375 C27.23279297 37.17445312 27.51832031 37.95046875 27.8125 38.75 C29.98977193 44.79513148 31.71325032 50.69806497 33 57 C27.39 57 21.78 57 16 57 C15.32997361 53.56312356 14.66384158 50.12557144 14 46.6875 C13.80921875 45.71103516 13.6184375 44.73457031 13.421875 43.72851562 C13.24140625 42.79072266 13.0609375 41.85292969 12.875 40.88671875 C12.70742187 40.02264404 12.53984375 39.15856934 12.3671875 38.26831055 C12 36 12 36 12 33 C11.34 33 10.68 33 10 33 C9.95101562 33.89460938 9.90203125 34.78921875 9.8515625 35.7109375 C9.40160674 42.98780827 8.61582797 49.89035693 7 57 C2.05 57 -2.9 57 -8 57 C-8.33158993 50.81032134 -7.583585 45.29650532 -6.3527832 39.22949219 C-4.6674518 30.70655831 -3.54270913 22.10098888 -2.35839844 13.49682617 C-2.11524902 11.74269409 -2.11524902 11.74269409 -1.8671875 9.953125 C-1.72394043 8.90286133 -1.58069336 7.85259766 -1.43310547 6.77050781 C-1 4 -1 4 0 0 Z " fill="#F07756" transform="translate(139,84)"/>
<path d="M0 0 C15.1228126 0.70964655 15.1228126 0.70964655 21.1875 7.1875 C27.24618333 14.83638893 27.8128979 22.41457889 27 32 C25.86058439 39.3777161 23.74213747 45.06007291 18 50 C13.23787698 53.28057364 8.63120543 53.99261926 3 53 C-2.69953115 50.79372988 -6.01279692 47.23611095 -9.08984375 42.0625 C-12.6152389 34.07362172 -12.44782787 22.01633308 -10.05859375 13.73828125 C-7.48707403 8.34534492 -4.41518491 4.70759245 1 2 C0.67 1.34 0.34 0.68 0 0 Z " fill="#8CD0C0" transform="translate(197,7)"/>
<path d="M0 0 C4.29 0 8.58 0 13 0 C13 16.5 13 33 13 50 C8.71 50 4.42 50 0 50 C-0.94185192 47.54326003 -1.87850968 45.08472864 -2.8125 42.625 C-3.07353516 41.94566406 -3.33457031 41.26632813 -3.60351562 40.56640625 C-5.68033382 35.07950387 -7.30262463 29.65791791 -9 24 C-9.33 32.25 -9.66 40.5 -10 49 C-13.63 49 -17.26 49 -21 49 C-21 33.16 -21 17.32 -21 1 C-17.04 1 -13.08 1 -9 1 C-4.98185775 10.18432515 -1.86160891 19.40447735 1 29 C0.83628906 27.73285156 0.67257813 26.46570313 0.50390625 25.16015625 C-0.07978908 19.90689827 -0.11285949 14.71749915 -0.0625 9.4375 C-0.05798828 8.52419922 -0.05347656 7.61089844 -0.04882812 6.66992188 C-0.03718762 4.44658548 -0.01925847 2.22328346 0 0 Z " fill="#FAFAFA" transform="translate(120,27)"/>
<path d="M0 0 C9.57 0 19.14 0 29 0 C28 11 28 11 27 13 C22.38 13 17.76 13 13 13 C12.67 15.97 12.34 18.94 12 22 C15.96 22 19.92 22 24 22 C23.125 33.875 23.125 33.875 22 35 C19.98035801 35.07244053 17.95832876 35.08377188 15.9375 35.0625 C14.83277344 35.05347656 13.72804687 35.04445312 12.58984375 35.03515625 C11.73519531 35.02355469 10.88054687 35.01195312 10 35 C9.67 37.97 9.34 40.94 9 44 C13.29 44 17.58 44 22 44 C21.53875845 48.48063218 21.09335878 52.62656486 20 57 C10.76 57 1.52 57 -8 57 C-8 48.0004006 -8 48.0004006 -7.48095703 44.9934082 C-7.3672879 44.31522537 -7.25361877 43.63704254 -7.13650513 42.93830872 C-7.01153656 42.23292465 -6.88656799 41.52754059 -6.7578125 40.80078125 C-6.56516312 39.66542183 -6.56516312 39.66542183 -6.36862183 38.50712585 C-5.96025608 36.10781121 -5.54297364 33.71015761 -5.125 31.3125 C-4.71612072 28.93239472 -4.30913077 26.55197435 -3.90280151 24.1714325 C-3.65090184 22.69943574 -3.39727784 21.2277323 -3.14138794 19.75642395 C-2.0046265 13.18123278 -1.01535368 6.59979894 0 0 Z " fill="#F07756" transform="translate(183,84)"/>
<path d="M0 0 C4.29 0 8.58 0 13 0 C13.33 12.54 13.66 25.08 14 38 C15.65 37.34 17.3 36.68 19 36 C19.33 24.12 19.66 12.24 20 0 C24.29 0 28.58 0 33 0 C33.09913284 5.72911572 33.1715934 11.45772839 33.21972656 17.1875 C33.23979906 19.13517966 33.26706332 21.08279937 33.30175781 23.03027344 C33.35046852 25.83543721 33.37301241 28.63980187 33.390625 31.4453125 C33.41127014 32.31116974 33.43191528 33.17702698 33.45318604 34.06912231 C33.45520418 39.54926645 32.67809347 42.66966238 29 47 C23.27547032 51.43943118 18.12533235 51.88259404 11 51 C5.62157154 49.14199744 2.53918244 46.07836487 0 41 C-0.08711775 37.93757679 -0.1154846 34.89813535 -0.09765625 31.8359375 C-0.0962413 30.92872955 -0.09482635 30.02152161 -0.09336853 29.08682251 C-0.08776096 26.18284845 -0.07520718 23.27895085 -0.0625 20.375 C-0.05748598 18.40885528 -0.0529229 16.44270935 -0.04882812 14.4765625 C-0.03778906 9.6510121 -0.02051935 4.82551903 0 0 Z " fill="#8AD0BF" transform="translate(227,9)"/>
<path d="M0 0 C0.027193 1.58323688 0.04648306 3.16661062 0.0625 4.75 C0.07410156 5.63171875 0.08570313 6.5134375 0.09765625 7.421875 C0 10 0 10 -1 14 C-5.62 14.33 -10.24 14.66 -15 15 C-15.54960616 19.73390333 -15.54960616 19.73390333 -13.57421875 21.625 C-12.95160156 22.07875 -12.32898438 22.5325 -11.6875 23 C-8.04724453 25.91073059 -5.50190123 28.16905147 -4.65234375 32.9609375 C-4.20478067 39.5022441 -6.38877948 44.6207861 -10 50 C-12.85607407 53.05599925 -16.77034346 56.74597812 -20.99291992 57.22705078 C-21.73131104 57.21657715 -22.46970215 57.20610352 -23.23046875 57.1953125 C-24.03291016 57.18886719 -24.83535156 57.18242187 -25.66210938 57.17578125 C-26.49548828 57.15902344 -27.32886719 57.14226562 -28.1875 57.125 C-29.03248047 57.11597656 -29.87746094 57.10695312 -30.74804688 57.09765625 C-32.83215243 57.07410703 -34.91611217 57.03823647 -37 57 C-36.34 52.38 -35.68 47.76 -35 43 C-28.565 42.505 -28.565 42.505 -22 42 C-21.67 40.68 -21.34 39.36 -21 38 C-22.31502877 36.19066394 -22.31502877 36.19066394 -24.25 34.625 C-28.84333861 30.28837493 -31.10374334 26.64267435 -31.5625 20.25 C-31.32064254 13.27819579 -28.01059269 8.30793518 -23.41796875 3.26171875 C-16.94624109 -1.92442869 -7.7962418 -0.39867146 0 0 Z " fill="#EF7756" transform="translate(285,84)"/>
<path d="M0 0 C0.027193 1.58323688 0.04648306 3.16661062 0.0625 4.75 C0.07410156 5.63171875 0.08570313 6.5134375 0.09765625 7.421875 C0 10 0 10 -1 14 C-5.62 14.33 -10.24 14.66 -15 15 C-15.54960616 19.73390333 -15.54960616 19.73390333 -13.57421875 21.625 C-12.95160156 22.07875 -12.32898438 22.5325 -11.6875 23 C-8.04724453 25.91073059 -5.50190123 28.16905147 -4.65234375 32.9609375 C-4.20478067 39.5022441 -6.38877948 44.6207861 -10 50 C-12.85607407 53.05599925 -16.77034346 56.74597812 -20.99291992 57.22705078 C-21.73131104 57.21657715 -22.46970215 57.20610352 -23.23046875 57.1953125 C-24.03291016 57.18886719 -24.83535156 57.18242187 -25.66210938 57.17578125 C-26.49548828 57.15902344 -27.32886719 57.14226562 -28.1875 57.125 C-29.03248047 57.11597656 -29.87746094 57.10695312 -30.74804688 57.09765625 C-32.83215243 57.07410703 -34.91611217 57.03823647 -37 57 C-36.34 52.38 -35.68 47.76 -35 43 C-28.565 42.505 -28.565 42.505 -22 42 C-21.67 40.68 -21.34 39.36 -21 38 C-22.31502877 36.19066394 -22.31502877 36.19066394 -24.25 34.625 C-28.84333861 30.28837493 -31.10374334 26.64267435 -31.5625 20.25 C-31.32064254 13.27819579 -28.01059269 8.30793518 -23.41796875 3.26171875 C-16.94624109 -1.92442869 -7.7962418 -0.39867146 0 0 Z " fill="#EF7756" transform="translate(44,84)"/>
<path d="M0 0 C10.89 0 21.78 0 33 0 C32.67 4.62 32.34 9.24 32 14 C28.7 14 25.4 14 22 14 C21.91959473 14.71019287 21.83918945 15.42038574 21.75634766 16.15209961 C21.38415615 19.41448295 21.0046292 22.67597413 20.625 25.9375 C20.43550781 27.61295898 20.43550781 27.61295898 20.2421875 29.32226562 C19.5744604 35.01463912 18.75851279 40.55890948 17.42822266 46.13452148 C16.90064353 48.4328294 16.5984486 50.71628973 16.375 53.0625 C16.25125 54.361875 16.1275 55.66125 16 57 C10.72 57 5.44 57 0 57 C0.67256015 51.511477 1.40395982 46.03562369 2.19140625 40.5625 C2.30097153 39.79695801 2.4105368 39.03141602 2.52342224 38.24267578 C2.8691167 35.82835471 3.215791 33.41417556 3.5625 31 C3.79889329 29.35026975 4.03522201 27.70053025 4.27148438 26.05078125 C4.84691063 22.03374692 5.42321491 18.01683944 6 14 C3.36 14 0.72 14 -2 14 C-1.34 9.38 -0.68 4.76 0 0 Z " fill="#EF7756" transform="translate(48,84)"/>
<path d="M0 0 C0.08333357 4.8333472 -0.04738513 9.23692563 -1 14 C-1.73605469 14.02578125 -2.47210938 14.0515625 -3.23046875 14.078125 C-9.35797275 14.4198815 -9.35797275 14.4198815 -15 16.625 C-20.55540117 23.22203889 -20.61220003 29.65288809 -20 38 C-19.67 39.32 -19.34 40.64 -19 42 C-15.04 42.66 -11.08 43.32 -7 44 C-7.33 48.29 -7.66 52.58 -8 57 C-10.54283234 57.10871967 -13.08095088 57.18762401 -15.625 57.25 C-16.33785156 57.28351563 -17.05070312 57.31703125 -17.78515625 57.3515625 C-23.01204789 57.44746877 -25.82859619 56.40560878 -30 53 C-35.05618465 47.52246663 -36.3733158 42.66599917 -36.3125 35.3125 C-36.30686035 34.60351562 -36.3012207 33.89453125 -36.29541016 33.1640625 C-36.04810947 22.4101554 -32.79667596 15.00078426 -25.3359375 7.27734375 C-17.63292085 0.11951777 -10.2490549 -0.46120747 0 0 Z " fill="#F17756" transform="translate(135,84)"/>
<path d="M0 0 C1.03253906 0.02707031 1.03253906 0.02707031 2.0859375 0.0546875 C3.7662381 0.10136252 5.44581163 0.17309061 7.125 0.25 C7.125 4.21 7.125 8.17 7.125 12.25 C3.495 12.58 -0.135 12.91 -3.875 13.25 C-2.80047992 18.62260042 -2.35434305 19.18224627 1.625 22.4375 C6.04942645 26.0988529 6.04942645 26.0988529 7.125 28.25 C7.81122521 35.58733105 7.03145892 40.64198203 2.3125 46.5 C-3.71568971 51.32255177 -10.5282077 50.41326205 -17.875 50.25 C-17.875 46.29 -17.875 42.33 -17.875 38.25 C-12.43 37.755 -12.43 37.755 -6.875 37.25 C-6.32615387 32.46090773 -6.32615387 32.46090773 -8.51953125 30.37109375 C-9.23496094 29.81550781 -9.95039063 29.25992188 -10.6875 28.6875 C-17.53324495 23.28821482 -17.53324495 23.28821482 -18.30859375 18.6640625 C-18.3169501 12.69763161 -18.11532787 8.82509059 -13.875 4.25 C-9.26244959 0.52604386 -5.78834757 -0.29166092 0 0 Z " fill="#FAFAF9" transform="translate(24.875,26.75)"/>
<path d="M0 0 C4.95 0 9.9 0 15 0 C13.48506481 12.53130855 11.72212695 25.0137732 9.875 37.5 C9.59489378 39.40232045 9.31494494 41.30466407 9.03515625 43.20703125 C8.35857877 47.80495585 7.67989341 52.40256461 7 57 C1.72 57 -3.56 57 -9 57 C-8.3007619 51.24820274 -7.51263563 45.51611215 -6.66015625 39.78515625 C-6.53313828 38.9299791 -6.4061203 38.07480194 -6.2752533 37.19371033 C-6.00770231 35.39606658 -5.73959203 33.598506 -5.47094727 31.80102539 C-5.06423963 29.07416372 -4.66197831 26.34666841 -4.25976562 23.61914062 C-3.99767104 21.8619381 -3.73531001 20.10477528 -3.47265625 18.34765625 C-3.29598167 17.1425515 -3.29598167 17.1425515 -3.11573792 15.9131012 C-2.30637129 10.54489023 -1.22636448 5.28896473 0 0 Z " fill="#F07756" transform="translate(85,84)"/>
<path d="M0 0 C0.33 0 0.66 0 1 0 C1 3.96 1 7.92 1 12 C3.64 12 6.28 12 9 12 C9 24.54 9 37.08 9 50 C13.29 50 17.58 50 22 50 C18.46455488 57.07089025 12.64429969 63.63587736 6 68 C1.37457761 69.52085594 -3.29975328 69.03914679 -8 68 C-10.57130391 65.42869609 -10.04884201 58.60686797 -10.203125 55.03125 C-10.18642263 51.39013258 -9.5426347 49.31853856 -7.1875 46.4375 C-6.64480469 45.92058594 -6.10210937 45.40367188 -5.54296875 44.87109375 C-1.61961001 40.11340049 -1.62984861 33.34550408 -1.3671875 27.44140625 C-1.32562531 26.65225327 -1.28406311 25.86310028 -1.24124146 25.05003357 C-1.11154632 22.55450796 -0.99309292 20.05859878 -0.875 17.5625 C-0.78850572 15.85998801 -0.70127339 14.15751335 -0.61328125 12.45507812 C-0.40031946 8.30376816 -0.19743074 4.1520764 0 0 Z " fill="#FAFBFB" transform="translate(262,9)"/>
<path d="M0 0 C9.57 0 19.14 0 29 0 C29 3.96 29 7.92 29 12 C26.36 12 23.72 12 21 12 C21 24.54 21 37.08 21 50 C16.71 50 12.42 50 8 50 C8 37.46 8 24.92 8 12 C5.36 12 2.72 12 0 12 C0 8.04 0 4.08 0 0 Z " fill="#FAF9F9" transform="translate(35,27)"/>
<path d="M0 0 C9.57 0 19.14 0 29 0 C29 3.96 29 7.92 29 12 C26.36 12 23.72 12 21 12 C21 24.54 21 37.08 21 50 C16.71 50 12.42 50 8 50 C8 37.46 8 24.92 8 12 C5.36 12 2.72 12 0 12 C0 8.04 0 4.08 0 0 Z " fill="#8AD0BF" transform="translate(263,9)"/>
<path d="M0 0 C2.4375 0.9375 2.4375 0.9375 3.5703125 2.53515625 C4.76729743 5.85112802 4.73946399 8.79347171 4.75 12.3125 C4.76675781 13.59898438 4.78351563 14.88546875 4.80078125 16.2109375 C4.41883229 20.12899454 3.41462676 22.56751614 1.4375 25.9375 C-0.9375 25.625 -0.9375 25.625 -3.5625 24.9375 C-6.34345904 20.76606144 -5.89320347 17.33787332 -5.875 12.4375 C-5.89111328 11.56996094 -5.90722656 10.70242187 -5.92382812 9.80859375 C-5.92447266 8.97457031 -5.92511719 8.14054687 -5.92578125 7.28125 C-5.92876221 6.52005859 -5.93174316 5.75886719 -5.93481445 4.97460938 C-5.27417596 1.35994211 -3.63457777 -0.08864824 0 0 Z " fill="#F9FCFB" transform="translate(205.5625,21.0625)"/>
<path d="M0 0 C0 11.88 0 23.76 0 36 C-2.475 36.495 -2.475 36.495 -5 37 C-5.09901748 32.37359847 -5.17153649 27.74781613 -5.21972656 23.12060547 C-5.2398188 21.54725396 -5.26709799 19.97397692 -5.30175781 18.40087891 C-5.35038494 16.13685728 -5.37299135 13.87382427 -5.390625 11.609375 C-5.41127014 10.90818542 -5.43191528 10.20699585 -5.45318604 9.48455811 C-5.45478388 5.99199888 -5.23848413 4.30092448 -3.03808594 1.52441406 C-1 0 -1 0 0 0 Z " fill="#FEFEFE" transform="translate(246,10)"/>
<path d="M0 0 C4.72289157 1.18072289 4.72289157 1.18072289 7 4 C8.75187903 9.25563708 9.15223717 15.81194483 7.24609375 21.0859375 C5.13154886 24.48579399 3.97349238 25.00662691 0 26 C0 17.42 0 8.84 0 0 Z " fill="#585652" transform="translate(149,39)"/>
<path d="M0 0 C1.9375 1 1.9375 1 3 3 C3.52960415 6.58042244 3.65886567 9.75978228 1.9375 13 C-1.17909511 14.60856522 -3.56262469 14.42213381 -7 14 C-9.4375 12.375 -9.4375 12.375 -11 10 C-11.60605429 6.36367425 -11.47161336 4.71685231 -9.4375 1.625 C-6.1005787 -0.5996142 -3.93094707 -0.50030235 0 0 Z M-6 2 C-2 3 -2 3 -2 3 Z M-2 3 C-1.34 3.66 -0.68 4.32 0 5 C0 4.34 0 3.68 0 3 C-0.66 3 -1.32 3 -2 3 Z M-8 4 C-8.6814823 5.89179203 -8.6814823 5.89179203 -9 8 C-8.34 8.66 -7.68 9.32 -7 10 C-7 8.02 -7 6.04 -7 4 C-7.33 4 -7.66 4 -8 4 Z M0 5 C-0.33 6.32 -0.66 7.64 -1 9 C-0.34 9 0.32 9 1 9 C0.67 7.68 0.34 6.36 0 5 Z M-5 8 C-5.33 9.32 -5.66 10.64 -6 12 C-4.68 11.67 -3.36 11.34 -2 11 C-2.33 10.01 -2.66 9.02 -3 8 C-3.66 8 -4.32 8 -5 8 Z " fill="#474541" transform="translate(297,134)"/>
<path d="M0 0 C4.75 0.75 4.75 0.75 7 3 C7.50128446 6.75963342 7.27944994 8.5342501 5.3125 11.8125 C2.73288632 14.25267511 1.41347491 14.47354367 -2 15 C-1.85879286 13.06215735 -1.71187127 11.12473045 -1.5625 9.1875 C-1.48128906 8.10855469 -1.40007812 7.02960938 -1.31640625 5.91796875 C-1 3 -1 3 0 0 Z " fill="#534A44" transform="translate(229,96)"/>
<path d="M0 0 C0.66 0 1.32 0 2 0 C2.33 6.93 2.66 13.86 3 21 C1.35 21 -0.3 21 -2 21 C-1.03644647 6.21867882 -1.03644647 6.21867882 0 0 Z " fill="#52504C" transform="translate(78,39)"/>
<path d="M0 0 C0.66 0.33 1.32 0.66 2 1 C2 1.66 2 2.32 2 3 C2.66 3 3.32 3 4 3 C3.7834375 4.546875 3.7834375 4.546875 3.5625 6.125 C2.7706178 12.39218196 2.41593834 18.69897659 2 25 C1.67 25 1.34 25 1 25 C0.67 21.37 0.34 17.74 0 14 C-0.33 14 -0.66 14 -1 14 C-0.67 9.38 -0.34 4.76 0 0 Z " fill="#5A4C45" transform="translate(97,100)"/>
<path d="M0 0 C1.62418745 -0.08090971 3.24951745 -0.13914995 4.875 -0.1875 C5.77992188 -0.22230469 6.68484375 -0.25710937 7.6171875 -0.29296875 C8.79667969 -0.14794922 8.79667969 -0.14794922 10 0 C13.82084702 5.73127053 12.13907961 13.45029223 11 20 C10.67 20 10.34 20 10 20 C9.67 18.02 9.34 16.04 9 14 C8.67 14 8.34 14 8 14 C8.33 9.71 8.66 5.42 9 1 C6.03 1 3.06 1 0 1 C0 0.67 0 0.34 0 0 Z " fill="#5D4D46" transform="translate(126,83)"/>
<path d="M0 0 C0.33 0 0.66 0 1 0 C1.33 9.24 1.66 18.48 2 28 C2.33 28 2.66 28 3 28 C2.25 34.75 2.25 34.75 0 37 C0 24.79 0 12.58 0 0 Z " fill="#41403C" transform="translate(57,40)"/>
<path d="M0 0 C8.11618358 -0.4969092 13.58332882 2.46137892 20 7 C19.01 7.66 18.02 8.32 17 9 C16.2575 8.21625 15.515 7.4325 14.75 6.625 C10.26893314 2.80418695 4.66303014 2.61395311 -1 2 C-0.67 1.34 -0.34 0.68 0 0 Z " fill="#DEE1DF" transform="translate(201,6)"/>
<path d="M0 0 C1.18771723 3.42943519 0.80226223 5.37784675 -0.4375 8.75 C-0.86869141 9.94882813 -0.86869141 9.94882813 -1.30859375 11.171875 C-1.53675781 11.77515625 -1.76492187 12.3784375 -2 13 C-2.66 13 -3.32 13 -4 13 C-4.0270043 11.54176788 -4.04639787 10.08339325 -4.0625 8.625 C-4.07410156 7.81289062 -4.08570313 7.00078125 -4.09765625 6.1640625 C-4 4 -4 4 -3 2 C-2.01 2 -1.02 2 0 2 C0 1.34 0 0.68 0 0 Z " fill="#584C45" transform="translate(208,128)"/>
<path d="M0 0 C1.32 1.32 2.64 2.64 4 4 C2.68938409 8.23429756 1.05643741 12.07407404 -1 16 C-1.33 16 -1.66 16 -2 16 C-1.42978066 10.6496441 -0.79265639 5.32212148 0 0 Z " fill="#5B4D45" transform="translate(153,92)"/>
<path d="M0 0 C0.59296875 0.22171875 1.1859375 0.4434375 1.796875 0.671875 C0.96542969 1.28675781 0.96542969 1.28675781 0.1171875 1.9140625 C-0.60726562 2.45289063 -1.33171875 2.99171875 -2.078125 3.546875 C-2.79742187 4.08054687 -3.51671875 4.61421875 -4.2578125 5.1640625 C-6.28565132 6.67060662 -6.28565132 6.67060662 -8.203125 8.671875 C-8.203125 5.19064369 -7.79161196 4.80666864 -5.453125 2.421875 C-4.94265625 1.88046875 -4.4321875 1.3390625 -3.90625 0.78125 C-2.203125 -0.328125 -2.203125 -0.328125 0 0 Z " fill="#F5F7F7" transform="translate(197.203125,8.328125)"/>
<path d="M0 0 C0.66 0 1.32 0 2 0 C2 4.29 2 8.58 2 13 C1.01 13.33 0.02 13.66 -1 14 C-0.67 9.38 -0.34 4.76 0 0 Z " fill="#6F6D69" transform="translate(78,39)"/>
<path d="M0 0 C0.66 0 1.32 0 2 0 C2.042721 1.66611905 2.04063832 3.33382885 2 5 C1 6 1 6 -1.50390625 6.09765625 C-3.01791016 6.08025391 -3.01791016 6.08025391 -4.5625 6.0625 C-5.57441406 6.05347656 -6.58632812 6.04445313 -7.62890625 6.03515625 C-8.41136719 6.02355469 -9.19382812 6.01195313 -10 6 C-10 5.34 -10 4.68 -10 4 C-6.7 4 -3.4 4 0 4 C0 2.68 0 1.36 0 0 Z " fill="#5F5E5A" transform="translate(17,59)"/>
<path d="M0 0 C0.66 0 1.32 0 2 0 C2.36504603 1.58086048 2.71660506 3.16483907 3.0625 4.75 C3.25972656 5.63171875 3.45695312 6.5134375 3.66015625 7.421875 C3.99825872 9.98679028 3.81158635 11.57091639 3 14 C0.9945196 9.64026 -0.53945369 5.83573624 -1 1 C-0.67 0.67 -0.34 0.34 0 0 Z " fill="#656360" transform="translate(118,43)"/>
<path d="M0 0 C1.98 0 3.96 0 6 0 C4.60667426 3.36720387 3.0210714 4.9859524 0 7 C0 4.69 0 2.38 0 0 Z " fill="#FBFBFB" transform="translate(285,22)"/>
<path d="M0 0 C1.32 0 2.64 0 4 0 C4 1.65 4 3.3 4 5 C2.68 5.33 1.36 5.66 0 6 C0 4.02 0 2.04 0 0 Z " fill="#5B4D45" transform="translate(80,88)"/>
<path d="M0 0 C0.33 0.99 0.66 1.98 1 3 C1.99 3.33 2.98 3.66 4 4 C3.67 5.32 3.34 6.64 3 8 C2.34 7.01 1.68 6.02 1 5 C0.01 5.495 0.01 5.495 -1 6 C-1.042721 4.33388095 -1.04063832 2.66617115 -1 1 C-0.67 0.67 -0.34 0.34 0 0 Z " fill="#594C45" transform="translate(207,110)"/>
</svg>
