<svg version="1.1" id="Layer_1" xmlns="http://www.w3.org/2000/svg" xmlns:xlink="http://www.w3.org/1999/xlink" x="0px" y="0px"
	 width="100%" viewBox="0 0 300 148" enable-background="new 0 0 300 148" xml:space="preserve">
<path fill="#4C4945" opacity="1.000000" stroke="none" 
	d="
M1.000000,49.000000 
	C1.000000,45.638714 1.000000,42.277424 1.236791,38.206123 
	C7.176105,24.086645 11.868117,20.995842 26.523092,20.995829 
	C67.099846,20.995790 107.677307,20.885469 148.252426,21.142538 
	C153.058197,21.172989 158.419449,22.228178 162.502304,24.580397 
	C167.303146,27.346275 169.567444,25.939476 173.002014,22.689682 
	C181.010925,15.111628 187.263870,5.439657 198.000000,1.000000 
	C203.022095,1.000000 208.044189,1.000000 213.759369,1.251055 
	C218.453491,4.827013 222.326462,5.206829 226.000000,1.000000 
	C250.890121,1.000000 275.780243,1.000000 301.000000,1.000000 
	C301.000000,9.017870 301.000000,17.040255 300.708130,25.697128 
	C295.575714,29.750298 293.191071,34.073437 293.883575,40.321453 
	C294.466766,45.583199 294.546051,51.036716 293.817566,56.261616 
	C293.305237,59.936279 291.632416,63.780121 289.449677,66.807060 
	C286.725586,70.584694 282.945526,73.600830 278.559509,78.014236 
	C282.472626,78.014236 284.759186,77.894051 287.028473,78.040825 
	C290.985352,78.296753 294.187988,81.956612 293.790588,85.763870 
	C293.515717,88.397148 292.948944,90.998741 292.623016,93.628174 
	C291.851532,99.851967 291.248077,106.157051 282.351166,106.289566 
	C290.296326,116.542923 288.964783,126.171112 283.455353,135.887650 
	C279.719788,142.475739 273.514221,145.921356 267.000000,149.000000 
	C178.333328,149.000000 89.666656,149.000000 1.000000,149.000000 
	C1.000000,145.279602 1.000000,141.618973 1.240843,137.178192 
	C2.867575,129.654449 2.189624,121.685638 12.439020,120.258408 
	C6.483344,114.355591 5.849946,107.608017 7.318682,101.381424 
	C8.730820,95.394798 12.373393,89.934296 14.645737,85.076698 
	C10.712934,83.901764 5.856466,82.450882 0.999999,81.000000 
	C1.000000,74.978844 1.000000,68.957695 1.285883,62.306042 
	C3.097474,60.507458 4.623181,59.339367 5.984071,58.297466 
	C4.255931,55.073730 2.627965,52.036865 1.000000,49.000000 
M217.009659,11.990539 
	C217.009659,11.990539 217.072815,11.940225 216.820435,11.257498 
	C209.068298,5.985456 201.836517,5.863171 194.228912,11.083745 
	C193.964035,11.377009 193.699158,11.670273 193.069016,11.872746 
	C192.768753,12.223059 192.468491,12.573371 191.594086,13.441727 
	C183.912552,22.119474 173.553558,28.510487 169.137939,40.743572 
	C164.935303,32.385014 158.469543,28.601513 150.109146,28.090523 
	C145.806610,27.827555 141.474533,28.048056 136.308487,28.043360 
	C135.461349,28.054113 134.614212,28.064867 132.868866,28.067169 
	C129.113083,28.067169 125.357315,28.067169 121.022980,28.067169 
	C121.022980,36.322929 121.022980,43.942451 121.022980,51.561974 
	C117.644234,44.850861 115.292625,38.002758 112.686546,31.252903 
	C112.194756,29.979164 110.784744,28.319632 109.635155,28.179728 
	C106.258682,27.768814 102.800011,28.033295 99.021133,28.033295 
	C99.021133,43.812206 99.021133,58.915401 98.503799,74.147369 
	C98.332108,74.101578 98.160408,74.055779 97.852386,73.231689 
	C94.617271,58.179001 91.382164,43.126312 88.136421,28.024151 
	C83.839722,28.024151 80.161774,28.272432 76.533806,27.953009 
	C73.037186,27.645153 71.677147,28.860397 70.883209,32.324459 
	C67.764778,45.930702 64.277443,59.452396 60.001534,73.004478 
	C59.076252,73.030693 58.150967,73.056908 57.027073,72.265121 
	C57.093418,70.595039 57.159763,68.924957 57.936901,66.690010 
	C58.174271,58.629398 58.434166,50.569214 58.586670,42.506996 
	C58.594833,42.075443 57.699127,41.626797 57.178730,40.442989 
	C59.566368,40.109756 61.954002,39.776524 64.470428,39.425320 
	C64.470428,35.668678 64.470428,32.095936 64.470428,28.335228 
	C54.978294,28.335228 45.772221,28.335228 36.412025,28.335228 
	C36.412025,32.226704 36.412025,35.803268 36.412025,39.580696 
	C38.432125,39.757427 40.220226,39.913864 42.169601,40.709835 
	C42.585312,41.205822 43.001026,41.701805 43.676109,43.078197 
	C43.579102,54.008129 43.482094,64.938057 43.121510,76.182480 
	C43.257717,76.518097 43.393925,76.853706 44.014126,77.718445 
	C48.341549,77.676666 52.668972,77.634895 57.789242,77.603828 
	C58.551826,77.401672 59.314411,77.199509 60.448994,77.690971 
	C64.257507,78.040390 68.235207,79.168747 71.799675,78.394547 
	C73.460197,78.033882 74.319519,73.984436 75.688438,71.322281 
	C78.032303,71.322281 80.819252,71.322281 83.766617,71.322281 
	C84.321564,73.467407 84.845695,75.493446 85.607986,78.440041 
	C89.986282,77.697639 94.281227,76.969368 98.531410,76.175125 
	C98.531410,76.175125 98.485832,76.240685 98.748688,77.061378 
	C102.897827,77.370255 107.046974,77.679123 111.106285,77.981308 
	C111.106285,69.469566 111.106285,61.776073 111.714394,53.837875 
	C112.139458,53.894962 112.564514,53.952049 113.122971,54.784325 
	C115.756233,62.152996 118.357117,69.533646 121.071289,76.872391 
	C121.352318,77.632240 122.324051,78.696411 122.946846,78.677589 
	C126.505409,78.570099 130.055344,78.177361 134.545990,77.920723 
	C135.484268,77.910225 136.422531,77.899734 138.236343,77.776344 
	C143.384399,77.578705 148.558502,77.638657 153.674240,77.121468 
	C160.871216,76.393875 165.998184,72.533638 168.898117,65.825584 
	C169.303787,64.887169 169.847488,64.008423 170.479721,62.814137 
	C176.694382,81.103172 194.855286,83.306816 205.584625,69.720299 
	C206.841553,68.128670 208.483963,66.841454 210.184128,65.182388 
	C215.679886,79.565605 231.638580,83.061134 242.000900,72.840302 
	C245.712891,69.179001 249.231461,65.321564 252.838318,61.553650 
	C254.012039,66.194000 253.904449,70.122704 254.069702,74.039902 
	C254.128571,75.435204 254.825134,77.990303 255.271606,77.999374 
	C259.843170,78.092308 265.619904,79.447830 268.751648,77.214180 
	C275.270020,72.565094 280.389282,65.954384 286.725769,59.564037 
	C286.766479,49.697208 286.807220,39.830376 287.242432,29.410873 
	C295.340027,24.203941 294.582275,16.437359 293.616547,8.385803 
	C282.523956,8.385803 271.764038,8.385803 260.107666,8.189570 
	C256.752563,8.214213 253.397476,8.238855 249.423843,8.060336 
	C248.859894,8.307469 248.295959,8.554604 247.170502,9.056540 
	C245.873367,10.318273 244.576248,11.580005 243.059860,12.054585 
	C242.663422,10.874691 242.605927,9.320280 241.800980,8.591755 
	C240.048203,7.005396 228.291550,8.285680 225.472733,10.369092 
	C223.403870,12.387375 221.723633,15.209388 218.023041,13.461518 
	C218.023041,13.461518 217.919083,12.983261 217.965912,12.433743 
	C217.658783,12.261730 217.351639,12.089717 217.009659,11.990539 
M214.671036,98.162361 
	C212.401474,112.592018 210.131912,127.021675 207.740707,142.224792 
	C211.828552,142.224792 215.294098,142.001541 218.717117,142.287323 
	C222.168777,142.575485 223.422760,141.059525 223.819107,137.875916 
	C224.451111,132.799683 225.358749,127.757774 226.149826,122.701355 
	C226.680603,122.685379 227.211365,122.669411 227.742142,122.653442 
	C228.832794,127.949860 229.766571,133.286835 231.118698,138.515640 
	C231.479874,139.912292 233.031647,141.920120 234.188751,142.028717 
	C238.601318,142.442917 243.075958,142.195908 248.155136,142.195908 
	C245.581055,133.948044 243.221878,126.388824 240.853867,118.801285 
	C242.541748,117.660210 243.969482,116.815361 245.263107,115.799721 
	C251.043167,111.261719 253.954987,101.568031 251.542389,94.449791 
	C249.098816,87.240211 242.891785,85.814262 236.399521,85.105286 
	C233.926056,84.835167 231.407623,84.941719 228.909576,84.937920 
	C216.500351,84.919044 216.500336,84.926247 214.671036,98.162361 
M132.848007,132.350632 
	C132.439804,135.410233 132.031601,138.469818 131.530350,142.226791 
	C135.595459,142.226791 138.899231,142.046356 142.173935,142.277512 
	C145.451218,142.508820 146.898819,141.470688 147.302368,137.992584 
	C148.055099,131.505066 149.354889,125.081009 150.427017,118.630539 
	C153.001480,125.348167 154.329987,132.111694 155.959137,138.801987 
	C156.270157,140.079163 157.695038,141.950409 158.730377,142.035553 
	C163.125198,142.396988 167.566833,142.188965 172.886597,142.188965 
	C170.298126,133.655045 168.247986,125.955750 165.582291,118.475822 
	C164.089417,114.286842 164.553925,111.037628 166.973877,107.355766 
	C171.588089,100.335434 175.714859,92.994736 180.558105,84.931091 
	C175.780106,84.931091 172.149185,85.098206 168.541885,84.878250 
	C165.653259,84.702118 163.969650,85.679359 162.744568,88.366661 
	C160.397324,93.515572 157.743149,98.526718 155.132416,103.551430 
	C154.641647,104.495979 153.759949,105.237427 152.134323,107.173378 
	C153.404602,98.910652 154.423599,92.282524 155.553757,84.931229 
	C151.258514,84.931229 147.790482,85.119698 144.352997,84.876343 
	C141.142303,84.649048 140.075089,85.967682 139.622055,89.037163 
	C137.531586,103.201210 135.204300,117.330299 132.848007,132.350632 
M210.938095,84.981590 
	C203.282349,84.965706 195.625168,85.029816 187.971664,84.890526 
	C185.292908,84.841774 184.197708,85.751366 183.795166,88.481857 
	C182.024399,100.493179 180.007004,112.467949 178.123825,124.462997 
	C177.233246,130.135544 176.443497,135.823929 175.556778,141.853867 
	C177.789871,142.014282 179.250610,142.205215 180.711914,142.209579 
	C187.701889,142.230469 194.694382,142.284348 201.679214,142.086975 
	C202.587296,142.061295 204.021072,140.782440 204.241638,139.853745 
	C205.033661,136.518997 205.409470,133.085388 206.064270,128.914124 
	C201.418854,128.914124 197.369141,128.914124 193.347168,128.914124 
	C193.276321,120.035812 193.312271,120.127655 200.977173,119.856796 
	C202.805557,119.792183 205.733795,119.007393 206.181091,117.813744 
	C207.408691,114.537697 207.586502,110.868256 208.230392,107.054993 
	C203.967575,106.802841 200.562927,106.601448 197.233109,106.404488 
	C196.565506,98.424088 196.801666,98.245613 203.897598,98.091675 
	C206.250519,98.040619 210.347885,97.871330 210.624069,96.898056 
	C211.683472,93.164764 211.514725,89.082962 210.938095,84.981590 
M261.220520,90.718361 
	C252.043549,101.999260 252.514282,109.894638 262.974762,120.127838 
	C263.331085,120.476448 263.890259,120.758232 264.018463,121.174713 
	C264.519043,122.801125 265.524994,124.665733 265.097504,126.059837 
	C264.753784,127.180779 262.695496,128.199936 261.252319,128.462006 
	C258.996124,128.871719 256.545532,128.268906 254.315567,128.744003 
	C252.905273,129.044464 250.967209,130.304855 250.624969,131.518082 
	C249.705673,134.777039 249.516785,138.242050 248.998917,141.900375 
	C254.511246,141.900375 259.609985,142.679810 264.363251,141.730164 
	C272.958862,140.012848 277.990173,133.994858 280.296661,125.633255 
	C282.385101,118.062149 279.717316,112.314430 273.606323,107.831390 
	C272.940765,107.343124 272.133392,106.822586 271.820709,106.124809 
	C271.119629,104.560303 269.906281,102.584557 270.374390,101.322647 
	C270.815521,100.133537 273.070312,99.227852 274.659607,98.947403 
	C276.917694,98.548927 279.329529,99.064308 281.610901,98.737396 
	C282.785980,98.569023 284.565460,97.604248 284.788330,96.687393 
	C285.674713,93.040451 286.055786,89.270691 286.688110,85.126472 
	C277.604309,85.036812 268.804016,83.161224 261.220520,90.718361 
M34.277325,109.221275 
	C33.149517,108.233902 31.742723,107.425133 30.966478,106.212677 
	C30.053043,104.785919 28.765774,102.511642 29.308979,101.506485 
	C30.034225,100.164474 32.286327,99.276482 34.025627,98.946091 
	C36.278297,98.518181 38.715900,99.094444 40.985825,98.713577 
	C42.088348,98.528587 43.624481,97.301987 43.868504,96.284195 
	C44.709633,92.775925 45.067974,89.151909 45.774010,84.490517 
	C39.250950,85.019897 33.041702,84.470726 27.529409,86.175331 
	C12.977739,90.675255 9.811928,108.631813 21.029482,119.441795 
	C22.695602,121.047386 23.281197,123.774231 24.366682,125.982346 
	C22.215734,126.857666 20.101171,128.368576 17.907301,128.494171 
	C9.988411,128.947495 9.968715,128.769882 8.681633,136.817886 
	C8.428746,138.399170 8.281991,139.997421 8.035807,141.998077 
	C13.310966,141.998077 18.208183,142.642258 22.863438,141.855225 
	C30.931625,140.491196 36.067753,135.121368 38.728737,127.505341 
	C41.057552,120.839996 40.439301,114.687416 34.277325,109.221275 
M80.565483,95.921410 
	C81.063759,92.502396 81.562035,89.083389 82.157455,84.997841 
	C71.514244,84.997841 61.403877,84.950462 51.296242,85.094643 
	C50.549080,85.105301 49.338238,86.399719 49.169392,87.259598 
	C48.472393,90.809158 48.094021,94.421288 47.554966,98.326180 
	C50.481373,98.668655 52.882599,98.949677 55.679382,99.276985 
	C53.478436,113.585968 51.320351,127.616272 49.072903,142.227585 
	C52.893307,142.227585 56.047764,142.007385 59.158218,142.283295 
	C63.052513,142.628708 64.662186,141.365234 65.192665,137.234192 
	C66.655159,125.845238 68.752144,114.539215 70.422295,103.174538 
	C70.886566,100.015343 71.987877,98.514717 75.472435,98.702271 
	C77.059669,98.787704 78.723770,97.445129 80.565483,95.921410 
M128.917282,134.159882 
	C129.005234,132.554153 129.093170,130.948410 129.205307,128.901077 
	C126.684525,128.777161 124.420921,129.108948 122.492439,128.453995 
	C120.298935,127.709045 117.564156,126.568138 116.519424,124.759171 
	C110.545593,114.415337 118.952469,99.425186 130.706345,98.732170 
	C132.126617,98.648422 134.370132,97.456863 134.676346,96.348816 
	C135.628616,92.902931 135.832092,89.250107 136.380249,85.285378 
	C126.468300,84.114159 117.932648,85.681580 110.892273,92.353966 
	C102.445877,100.358871 99.789505,110.660263 99.854546,121.857529 
	C99.932076,135.204315 107.001144,142.193771 120.198006,142.225830 
	C127.471397,142.243500 127.471397,142.243500 128.917282,134.159882 
M9.138565,49.960278 
	C11.896270,52.803989 14.776155,55.542427 17.357422,58.538170 
	C18.553635,59.926460 19.168312,61.815830 20.046631,63.478035 
	C18.382849,64.240921 16.782887,65.371452 15.039218,65.674141 
	C12.832541,66.057205 10.508939,65.766693 8.272430,65.766693 
	C8.272430,70.383575 8.272430,74.430809 8.272430,79.629280 
	C13.308541,78.658180 17.779219,78.052818 22.103712,76.899391 
	C27.941051,75.342445 31.458776,71.184273 32.720325,65.403320 
	C34.015190,59.469662 32.698406,54.138458 27.758402,50.122707 
	C25.950871,48.653358 23.889343,47.435745 22.328196,45.747692 
	C21.447031,44.794899 20.722239,42.907684 21.085083,41.832024 
	C21.403044,40.889427 23.293970,40.073215 24.567131,39.940533 
	C27.282402,39.657562 30.047634,39.853996 32.594395,39.853996 
	C32.594395,35.448895 32.594395,31.866098 32.594395,28.326363 
	C13.330225,26.723446 4.645340,34.491764 9.138565,49.960278 
M87.095940,85.120209 
	C86.437210,86.731552 85.480843,88.288383 85.173851,89.964157 
	C84.126480,95.681496 83.297134,101.439064 82.403915,107.184288 
	C80.624832,118.627419 78.858597,130.072540 76.977158,142.226791 
	C80.997948,142.226791 84.454834,142.045654 87.883583,142.278641 
	C91.192726,142.503479 92.553749,141.314484 93.019196,137.946976 
	C94.451767,127.582283 96.245285,117.267876 97.854172,106.927025 
	C98.963562,99.796577 99.999321,92.654686 101.148743,84.978615 
	C96.232903,84.978615 92.109421,84.978615 87.095940,85.120209 
z"/>
<path fill="#47704C" opacity="1.000000" stroke="none" 
	d="
M197.531342,1.000000 
	C187.263870,5.439657 181.010925,15.111628 173.002014,22.689682 
	C169.567444,25.939476 167.303146,27.346275 162.502304,24.580397 
	C158.419449,22.228178 153.058197,21.172989 148.252426,21.142538 
	C107.677307,20.885469 67.099846,20.995790 26.523092,20.995829 
	C11.868117,20.995842 7.176105,24.086645 1.236791,37.748055 
	C1.000000,25.689766 1.000000,13.379533 1.000000,1.000000 
	C66.354210,1.000000 131.708450,1.000000 197.531342,1.000000 
z"/>
<path fill="#47704C" opacity="1.000000" stroke="none" 
	d="
M267.468628,149.000000 
	C273.514221,145.921356 279.719788,142.475739 283.455353,135.887650 
	C288.964783,126.171112 290.296326,116.542923 282.351166,106.289566 
	C291.248077,106.157051 291.851532,99.851967 292.623016,93.628174 
	C292.948944,90.998741 293.515717,88.397148 293.790588,85.763870 
	C294.187988,81.956612 290.985352,78.296753 287.028473,78.040825 
	C284.759186,77.894051 282.472626,78.014236 278.559509,78.014236 
	C282.945526,73.600830 286.725586,70.584694 289.449677,66.807060 
	C291.632416,63.780121 293.305237,59.936279 293.817566,56.261616 
	C294.546051,51.036716 294.466766,45.583199 293.883575,40.321453 
	C293.191071,34.073437 295.575714,29.750298 300.708130,26.165806 
	C301.000000,63.020893 301.000000,100.041786 300.688995,137.352203 
	C296.088257,134.288589 291.054596,134.168381 288.481934,137.357651 
	C285.804474,140.676834 286.775269,145.165405 291.000000,149.000000 
	C283.312408,149.000000 275.624847,149.000000 267.468628,149.000000 
z"/>
<path fill="#47704C" opacity="1.000000" stroke="none" 
	d="
M0.999999,81.468658 
	C5.856466,82.450882 10.712934,83.901764 14.645737,85.076698 
	C12.373393,89.934296 8.730820,95.394798 7.318682,101.381424 
	C5.849946,107.608017 6.483344,114.355591 12.439020,120.258408 
	C2.189624,121.685638 2.867575,129.654449 1.240843,136.699020 
	C1.000000,118.645775 1.000000,100.291542 0.999999,81.468658 
z"/>
<path fill="#484642" opacity="1.000000" stroke="none" 
	d="
M291.486572,149.000000 
	C286.775269,145.165405 285.804474,140.676834 288.481934,137.357651 
	C291.054596,134.168381 296.088257,134.288589 300.688995,137.820862 
	C301.000000,141.582047 301.000000,145.164093 301.000000,149.000000 
	C297.993652,149.000000 294.983368,149.000000 291.486572,149.000000 
z"/>
<path fill="#47704C" opacity="1.000000" stroke="none" 
	d="
M1.000000,49.463184 
	C2.627965,52.036865 4.255931,55.073730 5.984071,58.297466 
	C4.623181,59.339367 3.097474,60.507458 1.285883,61.837772 
	C1.000000,57.975456 1.000000,53.950912 1.000000,49.463184 
z"/>
<path fill="#47704C" opacity="1.000000" stroke="none" 
	d="
M225.539368,1.000000 
	C222.326462,5.206829 218.453491,4.827013 214.226227,1.251055 
	C217.692902,1.000000 221.385818,1.000000 225.539368,1.000000 
z"/>
<path fill="#FBFCFC" opacity="1.000000" stroke="none" 
	d="
M286.083557,60.149834 
	C280.389282,65.954384 275.270020,72.565094 268.751648,77.214180 
	C265.619904,79.447830 259.843170,78.092308 255.271606,77.999374 
	C254.825134,77.990303 254.128571,75.435204 254.069702,74.039902 
	C253.904449,70.122704 254.012039,66.194000 252.838318,61.553650 
	C249.231461,65.321564 245.712891,69.179001 242.000900,72.840302 
	C231.638580,83.061134 215.679886,79.565605 210.184128,65.182388 
	C208.483963,66.841454 206.841553,68.128670 205.584625,69.720299 
	C194.855286,83.306816 176.694382,81.103172 170.479721,62.814137 
	C169.847488,64.008423 169.303787,64.887169 168.898117,65.825584 
	C165.998184,72.533638 160.871216,76.393875 153.674240,77.121468 
	C148.558502,77.638657 143.384399,77.578705 137.657990,77.389793 
	C137.105042,60.685524 137.130432,44.367809 137.155807,28.050091 
	C141.474533,28.048056 145.806610,27.827555 150.109146,28.090523 
	C158.469543,28.601513 164.935303,32.385014 169.137939,40.743572 
	C173.553558,28.510487 183.912552,22.119474 191.982101,13.631470 
	C191.731812,15.326684 191.145096,16.856543 190.446915,18.333704 
	C185.557373,28.678568 185.307068,39.184368 189.684998,49.692463 
	C192.635422,56.774197 198.047394,60.867119 205.883392,60.787674 
	C213.712845,60.708298 219.092758,56.506771 221.884811,49.392788 
	C226.751205,36.993557 225.971359,25.049089 218.069351,13.948750 
	C221.723633,15.209388 223.403870,12.387375 226.118683,10.212883 
	C227.218628,10.044111 227.672623,10.031547 227.994812,10.471151 
	C227.842957,22.561321 227.572372,34.205948 227.879944,45.835285 
	C228.139008,55.630714 234.400818,60.928226 244.676758,60.846874 
	C254.552628,60.768688 260.834351,55.367332 261.067139,45.882381 
	C261.360718,33.922279 261.054321,21.947456 261.005707,9.713454 
	C261.004517,9.093884 261.004303,8.739844 261.004120,8.385803 
	C271.764038,8.385803 282.523956,8.385803 293.616547,8.385803 
	C294.582275,16.437359 295.340027,24.203941 286.843781,29.568613 
	C286.058563,29.463640 285.671967,29.200930 285.241943,28.509605 
	C283.523193,21.516212 288.687714,22.147169 292.892517,21.576132 
	C292.892517,18.619507 292.792328,15.986085 292.920441,13.363818 
	C293.050995,10.691873 291.770905,9.926630 289.308594,9.955500 
	C282.157684,10.039343 275.003754,10.065223 267.853943,9.942429 
	C265.094513,9.895036 263.830933,10.852284 264.036591,13.680228 
	C264.156921,15.334846 263.666595,17.142902 264.182922,18.627329 
	C264.647736,19.963577 266.185333,21.987034 267.120636,21.919521 
	C271.675171,21.590775 271.815338,24.193316 271.777039,27.538944 
	C271.670380,36.851837 271.648834,46.168636 271.837494,55.478947 
	C271.867157,56.942394 273.105377,59.584209 273.890656,59.624630 
	C277.610779,59.816113 281.367645,59.294174 285.301544,59.187347 
	C285.704498,59.603989 285.901794,59.871174 286.083557,60.149834 
M154.475418,64.082031 
	C158.977158,57.337765 157.891220,50.272793 155.580505,43.183052 
	C155.374619,42.551407 154.435867,42.158630 153.183548,40.944901 
	C152.264099,41.253498 151.344635,41.562096 150.237045,42.681202 
	C150.301865,49.831661 150.366684,56.982124 150.571350,65.077934 
	C151.652802,64.810814 152.734253,64.543694 154.475418,64.082031 
z"/>
<path fill="#F17757" opacity="1.000000" stroke="none" 
	d="
M214.743927,97.730469 
	C216.500336,84.926247 216.500351,84.919044 228.909576,84.937920 
	C231.407623,84.941719 233.926056,84.835167 236.399521,85.105286 
	C242.891785,85.814262 249.098816,87.240211 251.542389,94.449791 
	C253.954987,101.568031 251.043167,111.261719 245.263107,115.799721 
	C243.969482,116.815361 242.541748,117.660210 240.853867,118.801285 
	C243.221878,126.388824 245.581055,133.948044 248.155136,142.195908 
	C243.075958,142.195908 238.601318,142.442917 234.188751,142.028717 
	C233.031647,141.920120 231.479874,139.912292 231.118698,138.515640 
	C229.766571,133.286835 228.832794,127.949860 227.742142,122.653442 
	C227.211365,122.669411 226.680603,122.685379 226.149826,122.701355 
	C225.358749,127.757774 224.451111,132.799683 223.819107,137.875916 
	C223.422760,141.059525 222.168777,142.575485 218.717117,142.287323 
	C215.294098,142.001541 211.828552,142.224792 207.740707,142.224792 
	C210.131912,127.021675 212.401474,112.592018 214.743927,97.730469 
M229.974869,98.669617 
	C229.259964,102.836563 228.545059,107.003502 227.802383,111.332291 
	C234.238876,110.968559 238.175278,106.024788 236.557495,100.941681 
	C235.625427,98.013054 233.759171,95.968681 229.974869,98.669617 
z"/>
<path fill="#F07757" opacity="1.000000" stroke="none" 
	d="
M132.904953,131.911285 
	C135.204300,117.330299 137.531586,103.201210 139.622055,89.037163 
	C140.075089,85.967682 141.142303,84.649048 144.352997,84.876343 
	C147.790482,85.119698 151.258514,84.931229 155.553757,84.931229 
	C154.423599,92.282524 153.404602,98.910652 152.134323,107.173378 
	C153.759949,105.237427 154.641647,104.495979 155.132416,103.551430 
	C157.743149,98.526718 160.397324,93.515572 162.744568,88.366661 
	C163.969650,85.679359 165.653259,84.702118 168.541885,84.878250 
	C172.149185,85.098206 175.780106,84.931091 180.558105,84.931091 
	C175.714859,92.994736 171.588089,100.335434 166.973877,107.355766 
	C164.553925,111.037628 164.089417,114.286842 165.582291,118.475822 
	C168.247986,125.955750 170.298126,133.655045 172.886597,142.188965 
	C167.566833,142.188965 163.125198,142.396988 158.730377,142.035553 
	C157.695038,141.950409 156.270157,140.079163 155.959137,138.801987 
	C154.329987,132.111694 153.001480,125.348167 150.427017,118.630539 
	C149.354889,125.081009 148.055099,131.505066 147.302368,137.992584 
	C146.898819,141.470688 145.451218,142.508820 142.173935,142.277512 
	C138.899231,142.046356 135.595459,142.226791 131.530350,142.226791 
	C132.031601,138.469818 132.439804,135.410233 132.904953,131.911285 
z"/>
<path fill="#F9F9F8" opacity="1.000000" stroke="none" 
	d="
M99.021133,74.018593 
	C99.021133,58.915401 99.021133,43.812206 99.021133,28.033295 
	C102.800011,28.033295 106.258682,27.768814 109.635155,28.179728 
	C110.784744,28.319632 112.194756,29.979164 112.686546,31.252903 
	C115.292625,38.002758 117.644234,44.850861 121.022980,51.561974 
	C121.022980,43.942451 121.022980,36.322929 121.022980,28.067169 
	C125.357315,28.067169 129.113083,28.067169 133.373413,28.532345 
	C133.788040,45.292179 133.698135,61.586842 133.608215,77.881500 
	C130.055344,78.177361 126.505409,78.570099 122.946846,78.677589 
	C122.324051,78.696411 121.352318,77.632240 121.071289,76.872391 
	C118.357117,69.533646 115.756233,62.152996 113.081512,54.053745 
	C112.544464,52.073250 112.048874,50.823334 111.553284,49.573418 
	C111.212944,49.633350 110.872612,49.693283 110.532272,49.753216 
	C110.723610,51.196339 110.914948,52.639462 111.106285,54.082584 
	C111.106285,61.776073 111.106285,69.469566 111.106285,77.981308 
	C107.046974,77.679123 102.897827,77.370255 98.879890,76.339172 
	C99.014435,75.084175 99.017784,74.551384 99.021133,74.018593 
z"/>
<path fill="#F17757" opacity="1.000000" stroke="none" 
	d="
M211.371170,85.056396 
	C211.514725,89.082962 211.683472,93.164764 210.624069,96.898056 
	C210.347885,97.871330 206.250519,98.040619 203.897598,98.091675 
	C196.801666,98.245613 196.565506,98.424088 197.233109,106.404488 
	C200.562927,106.601448 203.967575,106.802841 208.230392,107.054993 
	C207.586502,110.868256 207.408691,114.537697 206.181091,117.813744 
	C205.733795,119.007393 202.805557,119.792183 200.977173,119.856796 
	C193.312271,120.127655 193.276321,120.035812 193.347168,128.914124 
	C197.369141,128.914124 201.418854,128.914124 206.064270,128.914124 
	C205.409470,133.085388 205.033661,136.518997 204.241638,139.853745 
	C204.021072,140.782440 202.587296,142.061295 201.679214,142.086975 
	C194.694382,142.284348 187.701889,142.230469 180.711914,142.209579 
	C179.250610,142.205215 177.789871,142.014282 175.556778,141.853867 
	C176.443497,135.823929 177.233246,130.135544 178.123825,124.462997 
	C180.007004,112.467949 182.024399,100.493179 183.795166,88.481857 
	C184.197708,85.751366 185.292908,84.841774 187.971664,84.890526 
	C195.625168,85.029816 203.282349,84.965706 211.371170,85.056396 
z"/>
<path fill="#8CD1C0" opacity="1.000000" stroke="none" 
	d="
M218.046204,13.705133 
	C225.971359,25.049089 226.751205,36.993557 221.884811,49.392788 
	C219.092758,56.506771 213.712845,60.708298 205.883392,60.787674 
	C198.047394,60.867119 192.635422,56.774197 189.684998,49.692463 
	C185.307068,39.184368 185.557373,28.678568 190.446915,18.333704 
	C191.145096,16.856543 191.731812,15.326684 192.269165,13.372448 
	C192.468491,12.573371 192.768753,12.223059 193.660080,12.065958 
	C194.813614,12.139404 195.376099,12.019637 196.285522,11.775887 
	C201.753662,9.081589 206.964737,8.213721 212.446167,10.586931 
	C213.909409,11.220446 215.526413,11.498811 217.072815,11.940225 
	C217.072815,11.940225 217.009659,11.990539 217.015503,12.223618 
	C217.320587,12.632216 217.619827,12.807737 217.919083,12.983260 
	C217.919083,12.983261 218.023041,13.461518 218.046204,13.705133 
M208.799057,23.839806 
	C205.091034,21.180347 202.357300,21.709246 201.740585,26.137333 
	C200.950806,31.808077 201.180618,37.685226 201.628479,43.422112 
	C201.752274,45.007835 204.212601,46.411156 205.600876,47.898170 
	C207.062119,46.332672 209.707504,44.816063 209.774506,43.193005 
	C210.030533,36.991482 209.456635,30.755697 208.799057,23.839806 
z"/>
<path fill="#FAF9F9" opacity="1.000000" stroke="none" 
	d="
M98.576180,76.241096 
	C94.281227,76.969368 89.986282,77.697639 85.607986,78.440041 
	C84.845695,75.493446 84.321564,73.467407 83.766617,71.322281 
	C80.819252,71.322281 78.032303,71.322281 75.688438,71.322281 
	C74.319519,73.984436 73.460197,78.033882 71.799675,78.394547 
	C68.235207,79.168747 64.257507,78.040390 60.380165,77.021271 
	C60.516590,75.236214 60.721844,74.120850 60.927097,73.005486 
	C64.277443,59.452396 67.764778,45.930702 70.883209,32.324459 
	C71.677147,28.860397 73.037186,27.645153 76.533806,27.953009 
	C80.161774,28.272432 83.839722,28.024151 88.136421,28.024151 
	C91.382164,43.126312 94.617271,58.179001 97.872421,74.022720 
	C98.120361,75.289528 98.348267,75.765312 98.576180,76.241096 
M78.896049,45.929501 
	C78.142242,50.743969 77.388435,55.558437 76.613663,60.506844 
	C78.957787,60.506844 80.513878,60.506844 83.265800,60.506844 
	C81.733833,55.005531 80.366241,50.094505 78.896049,45.929501 
z"/>
<path fill="#F07757" opacity="1.000000" stroke="none" 
	d="
M261.476074,90.462593 
	C268.804016,83.161224 277.604309,85.036812 286.688110,85.126472 
	C286.055786,89.270691 285.674713,93.040451 284.788330,96.687393 
	C284.565460,97.604248 282.785980,98.569023 281.610901,98.737396 
	C279.329529,99.064308 276.917694,98.548927 274.659607,98.947403 
	C273.070312,99.227852 270.815521,100.133537 270.374390,101.322647 
	C269.906281,102.584557 271.119629,104.560303 271.820709,106.124809 
	C272.133392,106.822586 272.940765,107.343124 273.606323,107.831390 
	C279.717316,112.314430 282.385101,118.062149 280.296661,125.633255 
	C277.990173,133.994858 272.958862,140.012848 264.363251,141.730164 
	C259.609985,142.679810 254.511246,141.900375 248.998917,141.900375 
	C249.516785,138.242050 249.705673,134.777039 250.624969,131.518082 
	C250.967209,130.304855 252.905273,129.044464 254.315567,128.744003 
	C256.545532,128.268906 258.996124,128.871719 261.252319,128.462006 
	C262.695496,128.199936 264.753784,127.180779 265.097504,126.059837 
	C265.524994,124.665733 264.519043,122.801125 264.018463,121.174713 
	C263.890259,120.758232 263.331085,120.476448 262.974762,120.127838 
	C252.514282,109.894638 252.043549,101.999260 261.476074,90.462593 
z"/>
<path fill="#F07757" opacity="1.000000" stroke="none" 
	d="
M34.544212,109.464142 
	C40.439301,114.687416 41.057552,120.839996 38.728737,127.505341 
	C36.067753,135.121368 30.931625,140.491196 22.863438,141.855225 
	C18.208183,142.642258 13.310966,141.998077 8.035807,141.998077 
	C8.281991,139.997421 8.428746,138.399170 8.681633,136.817886 
	C9.968715,128.769882 9.988411,128.947495 17.907301,128.494171 
	C20.101171,128.368576 22.215734,126.857666 24.366684,125.982346 
	C23.281197,123.774231 22.695602,121.047386 21.029482,119.441795 
	C9.811928,108.631813 12.977739,90.675255 27.529409,86.175331 
	C33.041702,84.470726 39.250950,85.019897 45.774010,84.490517 
	C45.067974,89.151909 44.709633,92.775925 43.868504,96.284195 
	C43.624481,97.301987 42.088348,98.528587 40.985825,98.713577 
	C38.715900,99.094444 36.278297,98.518181 34.025627,98.946091 
	C32.286327,99.276482 30.034225,100.164474 29.308979,101.506485 
	C28.765774,102.511642 30.053043,104.785919 30.966478,106.212677 
	C31.742723,107.425133 33.149517,108.233902 34.544212,109.464142 
z"/>
<path fill="#F07757" opacity="1.000000" stroke="none" 
	d="
M80.459244,96.335846 
	C78.723770,97.445129 77.059669,98.787704 75.472435,98.702271 
	C71.987877,98.514717 70.886566,100.015343 70.422295,103.174538 
	C68.752144,114.539215 66.655159,125.845238 65.192665,137.234192 
	C64.662186,141.365234 63.052513,142.628708 59.158218,142.283295 
	C56.047764,142.007385 52.893307,142.227585 49.072903,142.227585 
	C51.320351,127.616272 53.478436,113.585968 55.679382,99.276985 
	C52.882599,98.949677 50.481373,98.668655 47.554966,98.326180 
	C48.094021,94.421288 48.472393,90.809158 49.169392,87.259598 
	C49.338238,86.399719 50.549080,85.105301 51.296242,85.094643 
	C61.403877,84.950462 71.514244,84.997841 82.157455,84.997841 
	C81.562035,89.083389 81.063759,92.502396 80.459244,96.335846 
z"/>
<path fill="#F07757" opacity="1.000000" stroke="none" 
	d="
M128.847977,134.603729 
	C127.471397,142.243500 127.471397,142.243500 120.198006,142.225830 
	C107.001144,142.193771 99.932076,135.204315 99.854546,121.857529 
	C99.789505,110.660263 102.445877,100.358871 110.892273,92.353966 
	C117.932648,85.681580 126.468300,84.114159 136.380249,85.285378 
	C135.832092,89.250107 135.628616,92.902931 134.676346,96.348816 
	C134.370132,97.456863 132.126617,98.648422 130.706345,98.732170 
	C118.952469,99.425186 110.545593,114.415337 116.519424,124.759171 
	C117.564156,126.568138 120.298935,127.709045 122.492439,128.453995 
	C124.420921,129.108948 126.684525,128.777161 129.205307,128.901077 
	C129.093170,130.948410 129.005234,132.554153 128.847977,134.603729 
z"/>
<path fill="#FAFAFA" opacity="1.000000" stroke="none" 
	d="
M8.995621,49.592056 
	C4.645340,34.491764 13.330225,26.723446 32.594395,28.326363 
	C32.594395,31.866098 32.594395,35.448895 32.594395,39.853996 
	C30.047634,39.853996 27.282402,39.657562 24.567131,39.940533 
	C23.293970,40.073215 21.403044,40.889427 21.085083,41.832024 
	C20.722239,42.907684 21.447031,44.794899 22.328196,45.747692 
	C23.889343,47.435745 25.950871,48.653358 27.758402,50.122707 
	C32.698406,54.138458 34.015190,59.469662 32.720325,65.403320 
	C31.458776,71.184273 27.941051,75.342445 22.103712,76.899391 
	C17.779219,78.052818 13.308541,78.658180 8.272430,79.629280 
	C8.272430,74.430809 8.272430,70.383575 8.272430,65.766693 
	C10.508939,65.766693 12.832541,66.057205 15.039218,65.674141 
	C16.782887,65.371452 18.382849,64.240921 20.046631,63.478035 
	C19.168312,61.815830 18.553635,59.926460 17.357422,58.538170 
	C14.776155,55.542427 11.896270,52.803989 8.995621,49.592056 
z"/>
<path fill="#F9F9F9" opacity="1.000000" stroke="none" 
	d="
M43.385090,75.867989 
	C43.482094,64.938057 43.579102,54.008129 43.650600,42.367496 
	C43.086170,41.127964 42.547245,40.599129 42.008324,40.070297 
	C40.220226,39.913864 38.432125,39.757427 36.412025,39.580696 
	C36.412025,35.803268 36.412025,32.226704 36.412025,28.335228 
	C45.772221,28.335228 54.978294,28.335228 64.470428,28.335228 
	C64.470428,32.095936 64.470428,35.668678 64.470428,39.425320 
	C61.954002,39.776524 59.566368,40.109756 57.115337,41.220406 
	C57.109997,50.416836 57.168049,58.835857 57.226105,67.254875 
	C57.159763,68.924957 57.093418,70.595039 57.041298,73.043030 
	C57.035809,75.078323 57.016102,76.335716 56.996395,77.593109 
	C52.668972,77.634895 48.341549,77.676666 43.794777,77.116623 
	C43.511982,76.299202 43.448536,76.083595 43.385090,75.867989 
z"/>
<path fill="#F07757" opacity="1.000000" stroke="none" 
	d="
M87.540939,85.049408 
	C92.109421,84.978615 96.232903,84.978615 101.148743,84.978615 
	C99.999321,92.654686 98.963562,99.796577 97.854172,106.927025 
	C96.245285,117.267876 94.451767,127.582283 93.019196,137.946976 
	C92.553749,141.314484 91.192726,142.503479 87.883583,142.278641 
	C84.454834,142.045654 80.997948,142.226791 76.977158,142.226791 
	C78.858597,130.072540 80.624832,118.627419 82.403915,107.184288 
	C83.297134,101.439064 84.126480,95.681496 85.173851,89.964157 
	C85.480843,88.288383 86.437210,86.731552 87.540939,85.049408 
z"/>
<path fill="#F9FDFC" opacity="1.000000" stroke="none" 
	d="
M260.555908,8.287687 
	C261.004303,8.739844 261.004517,9.093884 260.540192,9.713114 
	C257.742371,9.979897 255.381561,10.210222 253.081680,9.933755 
	C248.772278,9.415726 247.718964,11.310768 247.837555,15.340857 
	C248.097244,24.166359 247.956863,33.005337 247.881180,41.837959 
	C247.858719,44.459904 248.047729,47.952408 244.308548,47.593575 
	C243.049820,47.472782 241.244339,44.005821 241.179642,42.019646 
	C240.865051,32.363903 241.056213,22.691683 241.438034,13.006434 
	C242.298203,12.938960 242.788666,12.890347 243.279114,12.841736 
	C244.576248,11.580005 245.873367,10.318273 247.757629,8.983591 
	C248.910645,8.694926 249.476517,8.479213 250.042389,8.263498 
	C253.397476,8.238855 256.752563,8.214213 260.555908,8.287687 
z"/>
<path fill="#403F3B" opacity="1.000000" stroke="none" 
	d="
M134.077103,77.901108 
	C133.698135,61.586842 133.788040,45.292179 133.822510,28.536570 
	C134.614212,28.064867 135.461349,28.054113 136.732147,28.046726 
	C137.130432,44.367809 137.105042,60.685524 137.220230,77.446243 
	C136.422531,77.899734 135.484268,77.910225 134.077103,77.901108 
z"/>
<path fill="#E3EDEA" opacity="1.000000" stroke="none" 
	d="
M286.404663,59.856937 
	C285.901794,59.871174 285.704498,59.603989 285.260071,58.718449 
	C285.114105,48.371815 285.199738,38.655018 285.285400,28.938219 
	C285.671967,29.200930 286.058563,29.463640 286.646545,29.844948 
	C286.807220,39.830376 286.766479,49.697208 286.404663,59.856937 
z"/>
<path fill="#41403C" opacity="1.000000" stroke="none" 
	d="
M57.581505,66.972443 
	C57.168049,58.835857 57.109997,50.416836 57.138065,41.591961 
	C57.699127,41.626797 58.594833,42.075443 58.586670,42.506996 
	C58.434166,50.569214 58.174271,58.629398 57.581505,66.972443 
z"/>
<path fill="#E2E9E7" opacity="1.000000" stroke="none" 
	d="
M216.946625,11.598862 
	C215.526413,11.498811 213.909409,11.220446 212.446167,10.586931 
	C206.964737,8.213721 201.753662,9.081589 196.125854,11.574623 
	C195.343567,11.293236 195.067917,11.089126 194.792252,10.885015 
	C201.836517,5.863171 209.068298,5.985456 216.946625,11.598862 
z"/>
<path fill="#DBEBE6" opacity="1.000000" stroke="none" 
	d="
M243.169495,12.448160 
	C242.788666,12.890347 242.298203,12.938960 241.349030,12.612310 
	C239.631256,11.521526 238.424896,10.334101 237.102478,10.186477 
	C234.141190,9.855908 231.122131,10.042814 228.126602,10.018982 
	C227.672623,10.031547 227.218628,10.044111 226.424591,10.039839 
	C228.291550,8.285680 240.048203,7.005396 241.800980,8.591755 
	C242.605927,9.320280 242.663422,10.874691 243.169495,12.448160 
z"/>
<path fill="#41403C" opacity="1.000000" stroke="none" 
	d="
M57.392818,77.598465 
	C57.016102,76.335716 57.035809,75.078323 57.140602,73.452026 
	C58.150967,73.056908 59.076252,73.030693 60.464317,73.004982 
	C60.721844,74.120850 60.516590,75.236214 60.194168,76.674461 
	C59.314411,77.199509 58.551826,77.401672 57.392818,77.598465 
z"/>
<path fill="#A2A09D" opacity="1.000000" stroke="none" 
	d="
M111.410339,53.960228 
	C110.914948,52.639462 110.723610,51.196339 110.532272,49.753216 
	C110.872612,49.693283 111.212944,49.633350 111.553284,49.573418 
	C112.048874,50.823334 112.544464,52.073250 113.014816,53.666149 
	C112.564514,53.952049 112.139458,53.894962 111.410339,53.960228 
z"/>
<path fill="#3B3A35" opacity="1.000000" stroke="none" 
	d="
M42.088963,40.390068 
	C42.547245,40.599129 43.086170,41.127964 43.520912,41.927292 
	C43.001026,41.701805 42.585312,41.205822 42.088963,40.390068 
z"/>
<path fill="#FBFCFC" opacity="1.000000" stroke="none" 
	d="
M194.510590,10.984381 
	C195.067917,11.089126 195.343567,11.293236 195.778900,11.698608 
	C195.376099,12.019637 194.813614,12.139404 193.842712,12.111353 
	C193.699158,11.670273 193.964035,11.377009 194.510590,10.984381 
z"/>
<path fill="#D3CECD" opacity="1.000000" stroke="none" 
	d="
M249.733124,8.161918 
	C249.476517,8.479213 248.910645,8.694926 248.038391,8.856190 
	C248.295959,8.554604 248.859894,8.307469 249.733124,8.161918 
z"/>
<path fill="#A2A09D" opacity="1.000000" stroke="none" 
	d="
M98.553795,76.208115 
	C98.348267,75.765312 98.120361,75.289528 97.940575,74.411858 
	C98.160408,74.055779 98.332108,74.101578 98.762466,74.082977 
	C99.017784,74.551384 99.014435,75.084175 98.748459,75.928825 
	C98.485832,76.240685 98.531410,76.175125 98.553795,76.208115 
z"/>
<path fill="#3B3A35" opacity="1.000000" stroke="none" 
	d="
M43.253300,76.025238 
	C43.448536,76.083595 43.511982,76.299202 43.552780,76.852066 
	C43.393925,76.853706 43.257717,76.518097 43.253300,76.025238 
z"/>
<path fill="#E2E9E7" opacity="1.000000" stroke="none" 
	d="
M217.942505,12.708502 
	C217.619827,12.807737 217.320587,12.632216 217.032928,12.187201 
	C217.351639,12.089717 217.658783,12.261730 217.942505,12.708502 
z"/>
<path fill="#8BD0BF" opacity="1.000000" stroke="none" 
	d="
M227.994812,10.471150 
	C231.122131,10.042814 234.141190,9.855908 237.102478,10.186477 
	C238.424896,10.334101 239.631256,11.521526 240.979309,12.631173 
	C241.056213,22.691683 240.865051,32.363903 241.179642,42.019646 
	C241.244339,44.005821 243.049820,47.472782 244.308548,47.593575 
	C248.047729,47.952408 247.858719,44.459904 247.881180,41.837959 
	C247.956863,33.005337 248.097244,24.166359 247.837555,15.340857 
	C247.718964,11.310768 248.772278,9.415726 253.081680,9.933755 
	C255.381561,10.210222 257.742371,9.979897 260.541199,9.978642 
	C261.054321,21.947456 261.360718,33.922279 261.067139,45.882381 
	C260.834351,55.367332 254.552628,60.768688 244.676758,60.846874 
	C234.400818,60.928226 228.139008,55.630714 227.879944,45.835285 
	C227.572372,34.205948 227.842957,22.561321 227.994812,10.471150 
z"/>
<path fill="#8AD0BF" opacity="1.000000" stroke="none" 
	d="
M285.241943,28.509605 
	C285.199738,38.655018 285.114105,48.371815 285.069946,58.557510 
	C281.367645,59.294174 277.610779,59.816113 273.890656,59.624630 
	C273.105377,59.584209 271.867157,56.942394 271.837494,55.478947 
	C271.648834,46.168636 271.670380,36.851837 271.777039,27.538944 
	C271.815338,24.193316 271.675171,21.590775 267.120636,21.919521 
	C266.185333,21.987034 264.647736,19.963577 264.182922,18.627329 
	C263.666595,17.142902 264.156921,15.334846 264.036591,13.680228 
	C263.830933,10.852284 265.094513,9.895036 267.853943,9.942429 
	C275.003754,10.065223 282.157684,10.039343 289.308594,9.955500 
	C291.770905,9.926630 293.050995,10.691873 292.920441,13.363818 
	C292.792328,15.986085 292.892517,18.619507 292.892517,21.576132 
	C288.687714,22.147169 283.523193,21.516212 285.241943,28.509605 
z"/>
<path fill="#4A4945" opacity="1.000000" stroke="none" 
	d="
M153.837479,41.654915 
	C154.435867,42.158630 155.374619,42.551407 155.580505,43.183052 
	C157.891220,50.272793 158.977158,57.337765 153.580719,64.117340 
	C151.934525,64.145950 151.183014,64.139267 150.431503,64.132584 
	C150.366684,56.982124 150.301865,49.831661 150.900299,42.284077 
	C152.321533,41.809605 153.079514,41.732262 153.837479,41.654915 
z"/>
<path fill="#3F3E3A" opacity="1.000000" stroke="none" 
	d="
M153.510513,41.299908 
	C153.079514,41.732262 152.321533,41.809605 150.994385,41.878822 
	C151.344635,41.562096 152.264099,41.253498 153.510513,41.299908 
z"/>
<path fill="#3F3E3A" opacity="1.000000" stroke="none" 
	d="
M150.501434,64.605255 
	C151.183014,64.139267 151.934525,64.145950 153.250870,64.214607 
	C152.734253,64.543694 151.652802,64.810814 150.501434,64.605255 
z"/>
<path fill="#534A45" opacity="1.000000" stroke="none" 
	d="
M230.109772,98.296997 
	C233.759171,95.968681 235.625427,98.013054 236.557495,100.941681 
	C238.175278,106.024788 234.238876,110.968559 227.802383,111.332291 
	C228.545059,107.003502 229.259964,102.836563 230.109772,98.296997 
z"/>
<path fill="#FAFDFC" opacity="1.000000" stroke="none" 
	d="
M208.995850,24.186256 
	C209.456635,30.755697 210.030533,36.991482 209.774506,43.193005 
	C209.707504,44.816063 207.062119,46.332672 205.600876,47.898170 
	C204.212601,46.411156 201.752274,45.007835 201.628479,43.422112 
	C201.180618,37.685226 200.950806,31.808077 201.740585,26.137333 
	C202.357300,21.709246 205.091034,21.180347 208.995850,24.186256 
z"/>
<path fill="#55534F" opacity="1.000000" stroke="none" 
	d="
M78.947350,45.556488 
	C80.366241,50.094505 81.733833,55.005531 83.265800,60.506844 
	C80.513878,60.506844 78.957787,60.506844 76.613663,60.506844 
	C77.388435,55.558437 78.142242,50.743969 78.947350,45.556488 
z"/>
</svg>